<mxfile host="app.diagrams.net" modified="2023-04-23T13:09:48.887Z" agent="Mozilla/5.0 (Windows NT 10.0; Win64; x64) AppleWebKit/537.36 (KHTML, like Gecko) Chrome/112.0.0.0 Safari/537.36" etag="hM97aEZrFXlKAiZ0qJM_" version="21.2.0" type="device">
  <diagram id="23iRSUPoRavnBvh4doch" name="Page-1">
    <mxGraphModel dx="2474" dy="891" grid="1" gridSize="10" guides="1" tooltips="1" connect="1" arrows="1" fold="1" page="1" pageScale="1" pageWidth="827" pageHeight="1169" math="0" shadow="0">
      <root>
        <mxCell id="0" />
        <mxCell id="1" parent="0" />
        <mxCell id="DINkqIEnVPt6hGC_cwzz-3" value="" style="edgeStyle=orthogonalEdgeStyle;rounded=0;orthogonalLoop=1;jettySize=auto;html=1;" parent="1" source="DINkqIEnVPt6hGC_cwzz-2" target="2" edge="1">
          <mxGeometry relative="1" as="geometry">
            <mxPoint x="200" y="170" as="targetPoint" />
            <Array as="points">
              <mxPoint x="210" y="170" />
              <mxPoint x="210" y="170" />
            </Array>
          </mxGeometry>
        </mxCell>
        <mxCell id="DINkqIEnVPt6hGC_cwzz-4" value="characters" style="edgeLabel;html=1;align=center;verticalAlign=middle;resizable=0;points=[];" parent="DINkqIEnVPt6hGC_cwzz-3" vertex="1" connectable="0">
          <mxGeometry x="0.186" relative="1" as="geometry">
            <mxPoint x="-57" as="offset" />
          </mxGeometry>
        </mxCell>
        <mxCell id="DINkqIEnVPt6hGC_cwzz-2" value="PixArLang&lt;br&gt;source code" style="whiteSpace=wrap;html=1;shape=mxgraph.basic.document" parent="1" vertex="1">
          <mxGeometry x="20" y="120" width="100" height="100" as="geometry" />
        </mxCell>
        <mxCell id="DINkqIEnVPt6hGC_cwzz-10" value="frontend" style="swimlane;" parent="1" vertex="1">
          <mxGeometry x="230" y="110" width="200" height="290" as="geometry" />
        </mxCell>
        <mxCell id="2" value="lexer" style="rounded=0;whiteSpace=wrap;html=1;" parent="DINkqIEnVPt6hGC_cwzz-10" vertex="1">
          <mxGeometry x="40" y="40" width="120" height="60" as="geometry" />
        </mxCell>
        <mxCell id="DINkqIEnVPt6hGC_cwzz-6" value="parser" style="rounded=0;whiteSpace=wrap;html=1;" parent="DINkqIEnVPt6hGC_cwzz-10" vertex="1">
          <mxGeometry x="40" y="160" width="120" height="60" as="geometry" />
        </mxCell>
        <mxCell id="DINkqIEnVPt6hGC_cwzz-7" value="" style="edgeStyle=orthogonalEdgeStyle;rounded=0;orthogonalLoop=1;jettySize=auto;html=1;" parent="DINkqIEnVPt6hGC_cwzz-10" source="2" target="DINkqIEnVPt6hGC_cwzz-6" edge="1">
          <mxGeometry relative="1" as="geometry" />
        </mxCell>
        <mxCell id="DINkqIEnVPt6hGC_cwzz-8" value="Tokens" style="edgeLabel;html=1;align=center;verticalAlign=middle;resizable=0;points=[];" parent="DINkqIEnVPt6hGC_cwzz-7" vertex="1" connectable="0">
          <mxGeometry x="0.2321" y="3" relative="1" as="geometry">
            <mxPoint x="-3" y="-17" as="offset" />
          </mxGeometry>
        </mxCell>
        <mxCell id="DINkqIEnVPt6hGC_cwzz-11" value="backend" style="swimlane;" parent="1" vertex="1">
          <mxGeometry x="550" y="110" width="440" height="430" as="geometry" />
        </mxCell>
        <mxCell id="DINkqIEnVPt6hGC_cwzz-12" value="XML Generation&lt;br&gt;Pass" style="rounded=0;whiteSpace=wrap;html=1;" parent="DINkqIEnVPt6hGC_cwzz-11" vertex="1">
          <mxGeometry x="260" y="60" width="120" height="60" as="geometry" />
        </mxCell>
        <mxCell id="DINkqIEnVPt6hGC_cwzz-13" value="Semantic Analysis Pass" style="rounded=0;whiteSpace=wrap;html=1;" parent="DINkqIEnVPt6hGC_cwzz-11" vertex="1">
          <mxGeometry x="260" y="160" width="120" height="60" as="geometry" />
        </mxCell>
        <mxCell id="DINkqIEnVPt6hGC_cwzz-21" value="Code Generation &lt;br&gt;Pass" style="rounded=0;whiteSpace=wrap;html=1;" parent="DINkqIEnVPt6hGC_cwzz-11" vertex="1">
          <mxGeometry x="260" y="270" width="120" height="60" as="geometry" />
        </mxCell>
        <mxCell id="DINkqIEnVPt6hGC_cwzz-16" style="edgeStyle=elbowEdgeStyle;rounded=0;orthogonalLoop=1;jettySize=auto;html=1;exitDx=0;exitDy=0;entryX=0;entryY=0.5;entryDx=0;entryDy=0;startArrow=none;" parent="1" source="DINkqIEnVPt6hGC_cwzz-19" target="DINkqIEnVPt6hGC_cwzz-12" edge="1">
          <mxGeometry relative="1" as="geometry">
            <Array as="points">
              <mxPoint x="630" y="230" />
            </Array>
          </mxGeometry>
        </mxCell>
        <mxCell id="DINkqIEnVPt6hGC_cwzz-24" value="1st" style="edgeLabel;html=1;align=center;verticalAlign=middle;resizable=0;points=[];" parent="DINkqIEnVPt6hGC_cwzz-16" vertex="1" connectable="0">
          <mxGeometry x="0.3267" y="-3" relative="1" as="geometry">
            <mxPoint x="24" y="-3" as="offset" />
          </mxGeometry>
        </mxCell>
        <mxCell id="DINkqIEnVPt6hGC_cwzz-18" value="" style="edgeStyle=orthogonalEdgeStyle;rounded=0;orthogonalLoop=1;jettySize=auto;html=1;" parent="1" source="DINkqIEnVPt6hGC_cwzz-17" target="DINkqIEnVPt6hGC_cwzz-2" edge="1">
          <mxGeometry relative="1" as="geometry" />
        </mxCell>
        <mxCell id="DINkqIEnVPt6hGC_cwzz-17" value="User" style="shape=umlActor;verticalLabelPosition=bottom;verticalAlign=top;html=1;outlineConnect=0;" parent="1" vertex="1">
          <mxGeometry x="-80" y="140" width="30" height="60" as="geometry" />
        </mxCell>
        <mxCell id="DINkqIEnVPt6hGC_cwzz-22" value="" style="edgeStyle=elbowEdgeStyle;rounded=0;orthogonalLoop=1;jettySize=auto;html=1;" parent="1" source="DINkqIEnVPt6hGC_cwzz-19" target="DINkqIEnVPt6hGC_cwzz-13" edge="1">
          <mxGeometry relative="1" as="geometry">
            <mxPoint x="730" y="300" as="targetPoint" />
          </mxGeometry>
        </mxCell>
        <mxCell id="DINkqIEnVPt6hGC_cwzz-25" value="2nd" style="edgeLabel;html=1;align=center;verticalAlign=middle;resizable=0;points=[];" parent="DINkqIEnVPt6hGC_cwzz-22" vertex="1" connectable="0">
          <mxGeometry x="0.23" y="-1" relative="1" as="geometry">
            <mxPoint as="offset" />
          </mxGeometry>
        </mxCell>
        <mxCell id="DINkqIEnVPt6hGC_cwzz-23" style="edgeStyle=elbowEdgeStyle;rounded=0;orthogonalLoop=1;jettySize=auto;html=1;entryX=0;entryY=0.5;entryDx=0;entryDy=0;" parent="1" source="DINkqIEnVPt6hGC_cwzz-19" target="DINkqIEnVPt6hGC_cwzz-21" edge="1">
          <mxGeometry relative="1" as="geometry">
            <Array as="points">
              <mxPoint x="630" y="330" />
            </Array>
          </mxGeometry>
        </mxCell>
        <mxCell id="DINkqIEnVPt6hGC_cwzz-26" value="3rd" style="edgeLabel;html=1;align=center;verticalAlign=middle;resizable=0;points=[];" parent="DINkqIEnVPt6hGC_cwzz-23" vertex="1" connectable="0">
          <mxGeometry x="0.184" y="4" relative="1" as="geometry">
            <mxPoint x="38" y="4" as="offset" />
          </mxGeometry>
        </mxCell>
        <mxCell id="DINkqIEnVPt6hGC_cwzz-19" value="" style="shape=waypoint;sketch=0;fillStyle=solid;size=6;pointerEvents=1;points=[];fillColor=none;resizable=0;rotatable=0;perimeter=centerPerimeter;snapToPoint=1;" parent="1" vertex="1">
          <mxGeometry x="610" y="280" width="40" height="40" as="geometry" />
        </mxCell>
        <mxCell id="DINkqIEnVPt6hGC_cwzz-20" value="" style="edgeStyle=orthogonalEdgeStyle;rounded=0;orthogonalLoop=1;jettySize=auto;html=1;exitX=1;exitY=0.5;exitDx=0;exitDy=0;entryDx=0;entryDy=0;endArrow=none;" parent="1" source="DINkqIEnVPt6hGC_cwzz-6" target="DINkqIEnVPt6hGC_cwzz-19" edge="1">
          <mxGeometry relative="1" as="geometry">
            <mxPoint x="390" y="300" as="sourcePoint" />
            <mxPoint x="810" y="180" as="targetPoint" />
          </mxGeometry>
        </mxCell>
        <mxCell id="DINkqIEnVPt6hGC_cwzz-27" value="AST tree" style="edgeLabel;html=1;align=center;verticalAlign=middle;resizable=0;points=[];" parent="DINkqIEnVPt6hGC_cwzz-20" vertex="1" connectable="0">
          <mxGeometry x="0.6167" y="2" relative="1" as="geometry">
            <mxPoint x="-84" y="2" as="offset" />
          </mxGeometry>
        </mxCell>
        <mxCell id="DINkqIEnVPt6hGC_cwzz-31" value="" style="edgeStyle=elbowEdgeStyle;rounded=0;orthogonalLoop=1;jettySize=auto;html=1;entryX=0.5;entryY=0.5;entryDx=0;entryDy=0;entryPerimeter=0;" parent="1" source="DINkqIEnVPt6hGC_cwzz-28" target="DINkqIEnVPt6hGC_cwzz-30" edge="1">
          <mxGeometry relative="1" as="geometry">
            <mxPoint x="1290" y="370" as="targetPoint" />
          </mxGeometry>
        </mxCell>
        <mxCell id="DINkqIEnVPt6hGC_cwzz-28" value="PixIR output" style="whiteSpace=wrap;html=1;shape=mxgraph.basic.document" parent="1" vertex="1">
          <mxGeometry x="1110" y="320" width="100" height="100" as="geometry" />
        </mxCell>
        <mxCell id="DINkqIEnVPt6hGC_cwzz-29" value="" style="edgeStyle=elbowEdgeStyle;rounded=0;orthogonalLoop=1;jettySize=auto;html=1;" parent="1" source="DINkqIEnVPt6hGC_cwzz-21" target="DINkqIEnVPt6hGC_cwzz-28" edge="1">
          <mxGeometry relative="1" as="geometry">
            <mxPoint x="1010" y="370" as="targetPoint" />
          </mxGeometry>
        </mxCell>
        <mxCell id="DINkqIEnVPt6hGC_cwzz-30" value="User" style="shape=umlActor;verticalLabelPosition=bottom;verticalAlign=top;html=1;outlineConnect=0;" parent="1" vertex="1">
          <mxGeometry x="1260" y="340" width="30" height="60" as="geometry" />
        </mxCell>
      </root>
    </mxGraphModel>
  </diagram>
</mxfile>
